<svg id="Layer_1" data-name="Layer 1" xmlns="http://www.w3.org/2000/svg" viewBox="0 0 300 300"><title>Physics-expand</title><path d="M220.45,87.95a1.25,1.25,0,0,1-1.21-1c-1-3.9-2-7.78-3.09-11.54a1.25,1.25,0,1,1,2.4-.7c1.11,3.79,2.17,7.71,3.13,11.65a1.25,1.25,0,0,1-1.22,1.55Z" style="fill:#333"/><path d="M212.57,61.87A1.25,1.25,0,0,1,211.4,61c-1.71-4.68-3.57-9.27-5.52-13.65-2.06-4.61-4.25-9-6.5-13.18-1.14-2.1-2-3.63-2.82-5s-1.63-2.69-2.28-3.69c-.46-.71-.85-1.31-1.17-1.79a12.65,12.65,0,0,0-20.33,0c-.32.48-.72,1.07-1.15,1.74-.66,1-1.45,2.27-2.29,3.71A1.25,1.25,0,1,1,167.19,28c.86-1.49,1.67-2.76,2.35-3.8.44-.69.85-1.3,1.18-1.79a15.15,15.15,0,0,1,24.47,0c.33.49.74,1.11,1.21,1.84.66,1,1.45,2.27,2.32,3.76s1.71,2.91,2.87,5c2.28,4.18,4.5,8.68,6.58,13.35,2,4.43,3.85,9.07,5.58,13.8a1.25,1.25,0,0,1-1.17,1.68Z" style="fill:#333"/><path d="M183,27.42a3.54,3.54,0,0,1,2.92,1.27c.29.43.64,1,1,1.59.6.93,1.34,2.09,2.12,3.44s1.7,2.91,2.64,4.66c1.9,3.49,4,7.72,6.21,12.58s4.36,10.34,6.44,16.32a246.28,246.28,0,0,1,10.29,40.87c1.22,7.48,2.21,15.2,2.8,23s.9,15.82.92,23.8a290.76,290.76,0,0,1-3.81,46.85,249.38,249.38,0,0,1-10.29,40.87c-2.08,6-4.27,11.46-6.42,16.32-1.07,2.43-2.13,4.7-3.2,6.81s-2,4-3,5.78-1.8,3.3-2.63,4.66-1.51,2.51-2.11,3.44c-.4.63-.75,1.16-1,1.59a3.52,3.52,0,0,1-2.91,1.27h0A3.52,3.52,0,0,1,180,281.3c-.29-.43-.64-1-1-1.59-.6-.93-1.33-2.09-2.11-3.44s-1.69-2.91-2.63-4.66-1.93-3.68-3-5.78-2.13-4.38-3.2-6.81c-2.15-4.86-4.34-10.34-6.42-16.32a249.37,249.37,0,0,1-10.29-40.87A290.76,290.76,0,0,1,147.57,155c0-8,.31-15.95.92-23.8s1.58-15.57,2.8-23a246.27,246.27,0,0,1,10.29-40.87c2.08-6,4.28-11.46,6.44-16.32s4.3-9.09,6.21-12.58c.94-1.74,1.81-3.3,2.64-4.66s1.52-2.51,2.12-3.44c.4-.63.76-1.16,1-1.59A3.54,3.54,0,0,1,183,27.42Z" style="fill:#00c853"/><path d="M183,283.83A4.73,4.73,0,0,1,179,282c-.29-.43-.65-1-1.06-1.62-.66-1-1.37-2.15-2.14-3.49s-1.6-2.75-2.65-4.69c-.82-1.44-1.61-3-2.46-4.73l-.54-1.08c-1-2-2.06-4.23-3.22-6.86-2.32-5.23-4.49-10.76-6.46-16.41A251.84,251.84,0,0,1,150.14,202a290.61,290.61,0,0,1-3.82-47c0-8.16.33-16.2.92-23.9.55-7.34,1.5-15.13,2.81-23.15a248.86,248.86,0,0,1,10.34-41.08c2-5.65,4.15-11.18,6.48-16.42,2-4.44,4.08-8.7,6.25-12.67,1.1-2,1.92-3.48,2.67-4.71s1.48-2.45,2.14-3.47c.41-.64.77-1.18,1.06-1.61a5.2,5.2,0,0,1,7.91,0c.29.43.65,1,1.06,1.62.66,1,1.38,2.15,2.15,3.49s1.56,2.66,2.66,4.69c2.17,4,4.27,8.24,6.25,12.67,2.33,5.24,4.51,10.76,6.48,16.42A248.81,248.81,0,0,1,215.86,108c1.31,8,2.26,15.82,2.81,23.16.6,7.69.91,15.73.92,23.89a290.68,290.68,0,0,1-3.82,47.06,252,252,0,0,1-10.35,41.07c-2,5.65-4.13,11.18-6.46,16.42-1.15,2.62-2.21,4.87-3.22,6.87l-.54,1.08c-.84,1.69-1.64,3.28-2.47,4.75-1,1.91-1.87,3.41-2.65,4.69s-1.5,2.48-2.13,3.47c-.41.64-.76,1.18-1.06,1.61A4.73,4.73,0,0,1,183,283.83Zm0-255.16a2.35,2.35,0,0,0-1.88.72c-.28.42-.63.94-1,1.57-.64,1-1.34,2.1-2.09,3.39S176.4,37,175.32,39c-2.14,3.92-4.21,8.12-6.16,12.5-2.3,5.17-4.46,10.63-6.4,16.22a246.34,246.34,0,0,0-10.23,40.66c-1.3,8-2.24,15.67-2.79,22.94-.59,7.64-.9,15.61-.91,23.7a288.12,288.12,0,0,0,3.79,46.63,249.35,249.35,0,0,0,10.24,40.66c1.94,5.6,4.09,11.05,6.38,16.23,1.14,2.59,2.18,4.8,3.17,6.75l.54,1.09c.83,1.66,1.61,3.23,2.41,4.64,1,1.93,1.86,3.39,2.61,4.62s1.45,2.41,2.1,3.42c.4.62.74,1.15,1,1.57a2.8,2.8,0,0,0,3.75,0c.28-.42.63-.94,1-1.56.62-1,1.33-2.09,2.08-3.39s1.6-2.73,2.61-4.62c.81-1.44,1.59-3,2.42-4.66l.54-1.09c1-2,2-4.16,3.17-6.75,2.29-5.18,4.44-10.64,6.38-16.23a249.42,249.42,0,0,0,10.24-40.66A288.18,288.18,0,0,0,217.09,155c0-8.09-.32-16.06-.91-23.69-.55-7.27-1.49-15-2.79-22.94A246.33,246.33,0,0,0,203.16,67.7c-1.95-5.59-4.1-11.05-6.41-16.22-1.95-4.37-4-8.57-6.16-12.49-1.08-2-1.88-3.41-2.61-4.6S186.52,32,185.87,31c-.4-.63-.75-1.15-1-1.57A2.34,2.34,0,0,0,183,28.67Z" style="fill:#333"/><path d="M147.56,156.62H19.25a1.25,1.25,0,1,1,0-2.5h128.3a1.25,1.25,0,0,1,0,2.5Z" style="fill:#333"/><path d="M214,104.23a1.25,1.25,0,0,1,0-2.5l53.94-.33h0a1.25,1.25,0,0,1,0,2.5l-53.94.33Z" style="fill:#333"/><path d="M248,108.51a1.25,1.25,0,0,1-.88-.37l-4.48-4.48a1.25,1.25,0,0,1,0-1.77l4.48-4.48a1.25,1.25,0,0,1,1.77,1.77l-3.59,3.59,3.59,3.59a1.25,1.25,0,0,1-.88,2.13Z" style="fill:#333"/><path d="M280.75,156.62H219.1a1.25,1.25,0,0,1,0-2.5h61.65a1.25,1.25,0,0,1,0,2.5Z" style="fill:#333"/><path d="M218.09,156.62h-6a1.25,1.25,0,0,1,0-2.5h6a1.25,1.25,0,0,1,0,2.5Zm-12,0h-6a1.25,1.25,0,0,1,0-2.5h6a1.25,1.25,0,0,1,0,2.5Zm-12,0h-6a1.25,1.25,0,0,1,0-2.5h6a1.25,1.25,0,0,1,0,2.5Zm-12,0h-6a1.25,1.25,0,0,1,0-2.5h6a1.25,1.25,0,0,1,0,2.5Zm-12,0h-6a1.25,1.25,0,0,1,0-2.5h6a1.25,1.25,0,0,1,0,2.5Zm-12,0h-6a1.25,1.25,0,0,1,0-2.5h6a1.25,1.25,0,0,1,0,2.5Z" style="fill:#333"/><path d="M248.44,161.48a1.25,1.25,0,0,1-.88-.37l-4.48-4.48a1.25,1.25,0,0,1,0-1.77l4.48-4.48a1.25,1.25,0,0,1,1.77,1.77l-3.59,3.59,3.59,3.59a1.25,1.25,0,0,1-.88,2.13Z" style="fill:#333"/><path d="M268,208.34H213.34a1.25,1.25,0,0,1,0-2.5H268a1.25,1.25,0,0,1,0,2.5Z" style="fill:#333"/><path d="M248,213a1.25,1.25,0,0,1-.88-.37l-4.48-4.48a1.25,1.25,0,0,1,0-1.77l4.48-4.48a1.25,1.25,0,0,1,1.77,1.77l-3.59,3.59,3.59,3.59A1.25,1.25,0,0,1,248,213Z" style="fill:#333"/><path d="M49.88,161.17a1.25,1.25,0,0,1-.77-.26l-5.67-4.43a1.25,1.25,0,0,1,0-1.95l5.79-4.79a1.25,1.25,0,0,1,1.59,1.93l-4.59,3.8,4.45,3.47a1.25,1.25,0,0,1-.77,2.24Z" style="fill:#333"/><path d="M64.08,126.4a1.25,1.25,0,0,1-1.23-1l-1.24-7.09a1.25,1.25,0,0,1,.29-1,1.23,1.23,0,0,1,1-.42l7.5.33a1.25,1.25,0,1,1-.11,2.5l-5.95-.26,1,5.56a1.25,1.25,0,0,1-1,1.45Z" style="fill:#333"/><path d="M66.37,190.49a1.25,1.25,0,0,1-1.24-1.4l.92-7.45a1.25,1.25,0,0,1,2.48.31l-.73,5.91,5.61-.53a1.25,1.25,0,1,1,.24,2.49l-7.16.68Z" style="fill:#333"/><path d="M152.27,127.47a1.25,1.25,0,0,1-.44-2.42l5.62-2.11a1.25,1.25,0,0,1,.88,2.34l-5.62,2.11A1.25,1.25,0,0,1,152.27,127.47Zm11.23-4.23a1.25,1.25,0,0,1-.44-2.42l5.62-2.11a1.25,1.25,0,0,1,.88,2.34l-5.62,2.11A1.25,1.25,0,0,1,163.5,123.25ZM174.73,119a1.25,1.25,0,0,1-.44-2.42l5.62-2.11a1.25,1.25,0,0,1,.88,2.34l-5.62,2.11A1.25,1.25,0,0,1,174.73,119ZM186,114.79a1.25,1.25,0,0,1-.44-2.42l5.62-2.11a1.25,1.25,0,0,1,.88,2.34l-5.62,2.11A1.25,1.25,0,0,1,186,114.79Zm11.23-4.23a1.25,1.25,0,0,1-.44-2.42l5.62-2.11a1.25,1.25,0,0,1,.88,2.34l-5.62,2.11A1.25,1.25,0,0,1,197.2,110.57Zm11.23-4.23a1.25,1.25,0,0,1-.44-2.42l5.62-2.11a1.25,1.25,0,0,1,.88,2.34l-5.62,2.11A1.25,1.25,0,0,1,208.43,106.34Z" style="fill:#333"/><path d="M213.34,208.59a1.25,1.25,0,0,1-.44-.08l-5.62-2.1a1.25,1.25,0,0,1,.88-2.34l5.62,2.1a1.25,1.25,0,0,1-.44,2.42Zm-11.24-4.2a1.25,1.25,0,0,1-.44-.08l-5.62-2.1a1.25,1.25,0,1,1,.88-2.34l5.62,2.1a1.25,1.25,0,0,1-.44,2.42Zm-11.24-4.2a1.25,1.25,0,0,1-.44-.08L184.8,198a1.25,1.25,0,0,1,.88-2.34l5.62,2.1a1.25,1.25,0,0,1-.44,2.42ZM179.61,196a1.25,1.25,0,0,1-.44-.08l-5.62-2.1a1.25,1.25,0,0,1,.88-2.34l5.62,2.1a1.25,1.25,0,0,1-.44,2.42Zm-11.24-4.2a1.25,1.25,0,0,1-.44-.08l-5.62-2.1a1.25,1.25,0,1,1,.88-2.34l5.62,2.1a1.25,1.25,0,0,1-.44,2.42Zm-11.24-4.2a1.25,1.25,0,0,1-.44-.08l-5.62-2.1a1.25,1.25,0,0,1,.88-2.34l5.62,2.1a1.25,1.25,0,0,1-.44,2.42Z" style="fill:#333"/><path d="M148.59,184.18a1.25,1.25,0,0,1-.6-.16L98.4,156.63a1.25,1.25,0,0,1,0-2.18L148,125.95a1.25,1.25,0,0,1,1.25,2.17l-47.66,27.4,47.64,26.32a1.25,1.25,0,0,1-.61,2.34Z" style="fill:#333"/><path d="M53.11,203.39a1.25,1.25,0,0,1-.88-2.13l46-46-46-46A1.25,1.25,0,0,1,54,107.4l46.93,46.93a1.25,1.25,0,0,1,0,1.77L54,203A1.25,1.25,0,0,1,53.11,203.39Z" style="fill:#333"/><circle cx="100.04" cy="155.54" r="7.35" style="fill:#f2f2f2"/><path d="M100,164.14a8.6,8.6,0,1,1,8.6-8.6A8.61,8.61,0,0,1,100,164.14Zm0-14.7a6.1,6.1,0,1,0,6.1,6.1A6.11,6.11,0,0,0,100,149.44Z" style="fill:#333"/></svg>